<svg width="24" height="24" viewBox="0 0 24 24" fill="none" xmlns="http://www.w3.org/2000/svg">
<path d="M16.474 5.40783L18.592 7.52483M17.836 3.54283L12.109 9.26983C11.8131 9.56533 11.6113 9.94181 11.529 10.3518L11 12.9998L13.648 12.4698C14.058 12.3878 14.434 12.1868 14.73 11.8908L20.457 6.16383C20.6291 5.99173 20.7656 5.78742 20.8588 5.56256C20.9519 5.33771 20.9998 5.09671 20.9998 4.85333C20.9998 4.60994 20.9519 4.36895 20.8588 4.14409C20.7656 3.91923 20.6291 3.71492 20.457 3.54283C20.2849 3.37073 20.0806 3.23421 19.8557 3.14108C19.6309 3.04794 19.3899 3 19.1465 3C18.9031 3 18.6621 3.04794 18.4373 3.14108C18.2124 3.23421 18.0081 3.37073 17.836 3.54283V3.54283Z" stroke="#3D5BFF" stroke-width="1.5" stroke-linecap="round" stroke-linejoin="round"/>
<path d="M18.9982 14.9998V17.9998C18.9982 18.5302 18.7875 19.0389 18.4124 19.414C18.0373 19.789 17.5286 19.9998 16.9982 19.9998H5.99817C5.46774 19.9998 4.95903 19.789 4.58396 19.414C4.20888 19.0389 3.99817 18.5302 3.99817 17.9998V6.99976C3.99817 6.46932 4.20888 5.96061 4.58396 5.58554C4.95903 5.21047 5.46774 4.99976 5.99817 4.99976H8.99817" stroke="#3D5BFF" stroke-width="1.5" stroke-linecap="round" stroke-linejoin="round"/>
</svg>
