<svg width="33" height="32" viewBox="0 0 33 32" fill="none" xmlns="http://www.w3.org/2000/svg">
<path d="M14.19 18.88L10.6012 15.4C10.2987 15.1067 9.9275 14.96 9.4875 14.96C9.0475 14.96 8.6625 15.12 8.3325 15.44C8.03 15.7333 7.87875 16.1067 7.87875 16.56C7.87875 17.0133 8.03 17.3867 8.3325 17.68L13.035 22.24C13.3375 22.5333 13.7225 22.68 14.19 22.68C14.6575 22.68 15.0425 22.5333 15.345 22.24L24.7087 13.16C25.0112 12.8667 25.1625 12.5067 25.1625 12.08C25.1625 11.6533 24.9975 11.28 24.6675 10.96C24.365 10.6667 23.98 10.52 23.5125 10.52C23.045 10.52 22.66 10.6667 22.3575 10.96L14.19 18.88ZM16.5 32C14.2175 32 12.0725 31.5797 10.065 30.7392C8.0575 29.8997 6.31125 28.76 4.82625 27.32C3.34125 25.88 2.1659 24.1867 1.3002 22.24C0.4334 20.2933 0 18.2133 0 16C0 13.7867 0.4334 11.7067 1.3002 9.76C2.1659 7.81333 3.34125 6.12 4.82625 4.68C6.31125 3.24 8.0575 2.09973 10.065 1.2592C12.0725 0.419733 14.2175 0 16.5 0C18.7825 0 20.9275 0.419733 22.935 1.2592C24.9425 2.09973 26.6888 3.24 28.1737 4.68C29.6588 6.12 30.8341 7.81333 31.6998 9.76C32.5666 11.7067 33 13.7867 33 16C33 18.2133 32.5666 20.2933 31.6998 22.24C30.8341 24.1867 29.6588 25.88 28.1737 27.32C26.6888 28.76 24.9425 29.8997 22.935 30.7392C20.9275 31.5797 18.7825 32 16.5 32Z" fill="#3D5BFF"/>
</svg>
