<svg width="33" height="33" viewBox="0 0 33 33" fill="none" xmlns="http://www.w3.org/2000/svg">
<rect x="0.592106" y="0.592106" width="31.8158" height="31.8158" rx="15.9079" stroke="#3D5BFF" stroke-width="1.18421" stroke-dasharray="4.74"/>
<path fill-rule="evenodd" clip-rule="evenodd" d="M21.3631 16.0831H16.9168V11.6368C16.9168 11.4066 16.7302 11.22 16.5 11.22C16.2698 11.22 16.0831 11.4066 16.0831 11.6368V16.0831H11.6368C11.4066 16.0831 11.22 16.2698 11.22 16.5C11.22 16.7302 11.4066 16.9168 11.6368 16.9168H16.0831V21.3631C16.0831 21.5933 16.2698 21.78 16.5 21.78C16.7302 21.78 16.9168 21.5933 16.9168 21.3631V16.9168H21.3631C21.5933 16.9168 21.78 16.7302 21.78 16.5C21.78 16.2698 21.5933 16.0831 21.3631 16.0831Z" fill="#3D5BFF" stroke="#3D5BFF" stroke-width="1.18421"/>
</svg>
