<svg width="17" height="18" viewBox="0 0 17 18" fill="none" xmlns="http://www.w3.org/2000/svg">
<path d="M8.52939 14.4564L4.61174 17.4475C4.41763 17.6064 4.20586 17.6812 3.97645 17.672C3.74704 17.6635 3.5441 17.5975 3.36763 17.474C3.19116 17.3505 3.05457 17.1828 2.95786 16.9711C2.86045 16.7593 2.85586 16.5299 2.9441 16.2828L4.45292 11.3858L0.614686 8.65931C0.402921 8.51813 0.270569 8.33284 0.217627 8.10342C0.164686 7.87401 0.17351 7.66225 0.244098 7.46813C0.314686 7.27401 0.438216 7.10178 0.614686 6.95142C0.791157 6.80178 1.00292 6.72695 1.24998 6.72695H5.98822L7.52351 1.6446C7.61175 1.39754 7.74869 1.20766 7.93433 1.07495C8.11927 0.942953 8.31763 0.876953 8.52939 0.876953C8.74116 0.876953 8.93951 0.942953 9.12445 1.07495C9.3101 1.20766 9.44704 1.39754 9.53527 1.6446L11.0706 6.72695H15.8088C16.0559 6.72695 16.2676 6.80178 16.4441 6.95142C16.6206 7.10178 16.7441 7.27401 16.8147 7.46813C16.8853 7.66225 16.8941 7.87401 16.8412 8.10342C16.7882 8.33284 16.6559 8.51813 16.4441 8.65931L12.6059 11.3858L14.1147 16.2828C14.2029 16.5299 14.1987 16.7593 14.102 16.9711C14.0046 17.1828 13.8676 17.3505 13.6912 17.474C13.5147 17.5975 13.3117 17.6635 13.0823 17.672C12.8529 17.6812 12.6412 17.6064 12.447 17.4475L8.52939 14.4564Z" fill="#FFB800"/>
</svg>
