<svg width="14" height="18" viewBox="0 0 14 18" fill="none" xmlns="http://www.w3.org/2000/svg">
<path d="M11.0157 5.78925C11.0652 5.8415 11.1045 5.90357 11.1313 5.97191C11.1581 6.04025 11.1719 6.11351 11.1719 6.1875C11.1719 6.26149 11.1581 6.33475 11.1313 6.40309C11.1045 6.47143 11.0652 6.5335 11.0157 6.58575L9.15448 8.5545C9.05759 8.65686 8.92712 8.71574 8.79022 8.71888C8.65331 8.72203 8.52055 8.66919 8.41955 8.57137L7.62188 7.80075C7.52309 7.69881 7.46563 7.56025 7.46164 7.41432C7.45766 7.2684 7.50747 7.12656 7.60054 7.01876C7.69361 6.91097 7.82265 6.84567 7.9604 6.83666C8.09815 6.82766 8.23381 6.87565 8.33872 6.9705L8.76096 7.37775L10.2627 5.78925C10.3121 5.73687 10.3708 5.69531 10.4354 5.66695C10.5 5.63859 10.5693 5.62399 10.6392 5.62399C10.7092 5.62399 10.7784 5.63859 10.843 5.66695C10.9076 5.69531 10.9663 5.73687 11.0157 5.78925ZM11.0157 12.2108C11.1156 12.1053 11.1717 11.9622 11.1718 11.8129C11.1719 11.6636 11.116 11.5204 11.0162 11.4148C10.9165 11.3092 10.7812 11.2498 10.6401 11.2497C10.499 11.2496 10.3636 11.3088 10.2638 11.4143L8.76096 13.0027L8.33872 12.5955C8.23381 12.5006 8.09815 12.4527 7.9604 12.4617C7.82265 12.4707 7.69361 12.536 7.60054 12.6438C7.50747 12.7516 7.45766 12.8934 7.46164 13.0393C7.46563 13.1852 7.52309 13.3238 7.62188 13.4258L8.41955 14.1964C8.52049 14.2939 8.65303 14.3465 8.78968 14.3433C8.92632 14.3402 9.05658 14.2815 9.15341 14.1795L11.0147 12.2108H11.0157ZM3.19425 6.75C3.05322 6.75 2.91796 6.80926 2.81823 6.91475C2.7185 7.02024 2.66247 7.16332 2.66247 7.3125C2.66247 7.46168 2.7185 7.60476 2.81823 7.71025C2.91796 7.81574 3.05322 7.875 3.19425 7.875H5.85317C5.99421 7.875 6.12947 7.81574 6.2292 7.71025C6.32892 7.60476 6.38495 7.46168 6.38495 7.3125C6.38495 7.16332 6.32892 7.02024 6.2292 6.91475C6.12947 6.80926 5.99421 6.75 5.85317 6.75H3.19425ZM2.66247 12.9375C2.66247 12.7883 2.7185 12.6452 2.81823 12.5398C2.91796 12.4343 3.05322 12.375 3.19425 12.375H5.85317C5.99421 12.375 6.12947 12.4343 6.2292 12.5398C6.32892 12.6452 6.38495 12.7883 6.38495 12.9375C6.38495 13.0867 6.32892 13.2298 6.2292 13.3352C6.12947 13.4407 5.99421 13.5 5.85317 13.5H3.19425C3.05322 13.5 2.91796 13.4407 2.81823 13.3352C2.7185 13.2298 2.66247 13.0867 2.66247 12.9375ZM3.81644 1.125C3.92646 0.79585 4.13028 0.510895 4.39982 0.309407C4.66935 0.107919 4.99133 -0.00018279 5.32139 2.32016e-07H8.51208C8.84214 -0.00018279 9.16412 0.107919 9.43365 0.309407C9.70319 0.510895 9.90701 0.79585 10.017 1.125H11.7028C12.1259 1.125 12.5317 1.30279 12.8309 1.61926C13.13 1.93573 13.2981 2.36495 13.2981 2.8125V16.3125C13.2981 16.7601 13.13 17.1893 12.8309 17.5057C12.5317 17.8222 12.1259 18 11.7028 18H2.13069C1.70758 18 1.30179 17.8222 1.00261 17.5057C0.70342 17.1893 0.535339 16.7601 0.535339 16.3125V2.8125C0.535339 2.36495 0.70342 1.93573 1.00261 1.61926C1.30179 1.30279 1.70758 1.125 2.13069 1.125H3.81644ZM5.32139 1.125C5.18035 1.125 5.04509 1.18426 4.94536 1.28975C4.84563 1.39524 4.7896 1.53832 4.7896 1.6875C4.7896 1.83668 4.84563 1.97976 4.94536 2.08525C5.04509 2.19074 5.18035 2.25 5.32139 2.25H8.51208C8.65312 2.25 8.78838 2.19074 8.88811 2.08525C8.98784 1.97976 9.04387 1.83668 9.04387 1.6875C9.04387 1.53832 8.98784 1.39524 8.88811 1.28975C8.78838 1.18426 8.65312 1.125 8.51208 1.125H5.32139ZM3.81644 2.25H2.13069C1.98965 2.25 1.85439 2.30926 1.75466 2.41475C1.65493 2.52024 1.59891 2.66332 1.59891 2.8125V16.3125C1.59891 16.4617 1.65493 16.6048 1.75466 16.7102C1.85439 16.8157 1.98965 16.875 2.13069 16.875H11.7028C11.8438 16.875 11.9791 16.8157 12.0788 16.7102C12.1785 16.6048 12.2346 16.4617 12.2346 16.3125V2.8125C12.2346 2.66332 12.1785 2.52024 12.0788 2.41475C11.9791 2.30926 11.8438 2.25 11.7028 2.25H10.017C9.90701 2.57915 9.70319 2.86411 9.43365 3.06559C9.16412 3.26708 8.84214 3.37518 8.51208 3.375H5.32139C4.99133 3.37518 4.66935 3.26708 4.39982 3.06559C4.13028 2.86411 3.92646 2.57915 3.81644 2.25Z" fill="black" fill-opacity="0.7"/>
</svg>
