<svg width="12" height="13" viewBox="0 0 12 13" fill="none" xmlns="http://www.w3.org/2000/svg">
<path d="M7.91183 11.2828C7.9385 11.4828 7.87183 11.6961 7.7185 11.8361C7.65682 11.8979 7.58356 11.9469 7.50291 11.9804C7.42226 12.0138 7.33581 12.031 7.2485 12.031C7.16118 12.031 7.07473 12.0138 6.99408 11.9804C6.91343 11.9469 6.84017 11.8979 6.7785 11.8361L4.10516 9.16275C4.03245 9.09167 3.97717 9.00474 3.94363 8.90875C3.91009 8.81276 3.89921 8.71031 3.91183 8.60942V5.19609L0.718497 1.10942C0.610236 0.970439 0.561386 0.794258 0.582622 0.619372C0.603859 0.444487 0.693454 0.285117 0.831831 0.176086C0.958497 0.0827523 1.0985 0.0294189 1.24516 0.0294189H10.5785C10.7252 0.0294189 10.8652 0.0827523 10.9918 0.176086C11.1302 0.285117 11.2198 0.444487 11.241 0.619372C11.2623 0.794258 11.2134 0.970439 11.1052 1.10942L7.91183 5.19609V11.2828ZM2.60516 1.36275L5.24516 4.73609V8.41609L6.5785 9.74942V4.72942L9.2185 1.36275H2.60516Z" fill="#3D5BFF"/>
</svg>
