<svg width="35" height="35" viewBox="0 0 35 35" fill="none" xmlns="http://www.w3.org/2000/svg">
<rect x="18.7598" y="21.7012" width="3.56647" height="10.105" rx="1.78324" transform="rotate(-45 18.7598 21.7012)" fill="#3D5BFF"/>
<path fill-rule="evenodd" clip-rule="evenodd" d="M22.332 22.332C26.3944 18.2697 26.3944 11.6834 22.332 7.62109C18.2697 3.55878 11.6834 3.55878 7.6211 7.62109C3.55878 11.6834 3.55878 18.2697 7.6211 22.332C11.6834 26.3943 18.2697 26.3943 22.332 22.332ZM20.2305 20.2305C23.1321 17.3288 23.1321 12.6243 20.2305 9.72265C17.3288 6.821 12.6243 6.821 9.72266 9.72265C6.821 12.6243 6.821 17.3288 9.72266 20.2305C12.6243 23.1321 17.3288 23.1321 20.2305 20.2305Z" fill="#3D5BFF"/>
</svg>
