<svg width="20" height="18" viewBox="0 0 20 18" fill="none" xmlns="http://www.w3.org/2000/svg">
<path d="M12.6508 9.25H13.8474V11.7175L15.7937 12.9513L15.1954 14.0888L12.6508 12.4788V9.25ZM13.4485 7.5C12.3907 7.5 11.3763 7.96094 10.6283 8.78141C9.88035 9.60188 9.46015 10.7147 9.46015 11.875C9.46015 13.0353 9.88035 14.1481 10.6283 14.9686C11.3763 15.7891 12.3907 16.25 13.4485 16.25C14.5063 16.25 15.5208 15.7891 16.2687 14.9686C17.0167 14.1481 17.4369 13.0353 17.4369 11.875C17.4369 10.7147 17.0167 9.60188 16.2687 8.78141C15.5208 7.96094 14.5063 7.5 13.4485 7.5ZM13.4485 5.75C14.9294 5.75 16.3497 6.39531 17.3968 7.54397C18.444 8.69263 19.0322 10.2505 19.0322 11.875C19.0322 13.4995 18.444 15.0574 17.3968 16.206C16.3497 17.3547 14.9294 18 13.4485 18C11.223 18 9.30061 16.565 8.39924 14.5H0.68573V11.875C0.68573 9.5475 4.93733 8.375 7.06712 8.375C7.54573 8.375 8.13601 8.43625 8.75819 8.55C9.26414 7.69023 9.9586 6.98341 10.778 6.49424C11.5974 6.00507 12.5156 5.74918 13.4485 5.75ZM7.8648 11.875C7.8648 11.2625 7.94457 10.6675 8.09612 10.125C7.7611 10.0638 7.41012 10.0375 7.06712 10.0375C4.69803 10.0375 2.20131 11.315 2.20131 11.875V12.8375H7.93659C7.88861 12.5194 7.86459 12.1975 7.8648 11.875ZM7.06712 0.5C7.91335 0.5 8.72492 0.868749 9.32329 1.52513C9.92166 2.1815 10.2578 3.07174 10.2578 4C10.2578 4.92826 9.92166 5.8185 9.32329 6.47487C8.72492 7.13125 7.91335 7.5 7.06712 7.5C6.2209 7.5 5.40933 7.13125 4.81096 6.47487C4.21259 5.8185 3.87643 4.92826 3.87643 4C3.87643 3.07174 4.21259 2.1815 4.81096 1.52513C5.40933 0.868749 6.2209 0.5 7.06712 0.5ZM7.06712 2.1625C6.62286 2.1625 6.19678 2.35609 5.88264 2.70069C5.56849 3.04529 5.39201 3.51266 5.39201 4C5.39201 4.48734 5.56849 4.95471 5.88264 5.29931C6.19678 5.64391 6.62286 5.8375 7.06712 5.8375C7.51139 5.8375 7.93747 5.64391 8.25161 5.29931C8.56576 4.95471 8.74224 4.48734 8.74224 4C8.74224 3.51266 8.56576 3.04529 8.25161 2.70069C7.93747 2.35609 7.51139 2.1625 7.06712 2.1625Z" fill="black"/>
</svg>
