<svg width="17" height="17" viewBox="0 0 17 17" fill="none" xmlns="http://www.w3.org/2000/svg">
<path d="M8.3458 13.5794L4.42815 16.5706C4.23403 16.7294 4.02227 16.8042 3.79286 16.7951C3.56345 16.7866 3.3605 16.7206 3.18403 16.5971C3.00756 16.4735 2.87097 16.3059 2.77427 16.0941C2.67686 15.8824 2.67227 15.6529 2.7605 15.4059L4.26933 10.5088L0.431092 7.78235C0.219328 7.64118 0.0869748 7.45588 0.0340336 7.22647C-0.0189076 6.99706 -0.010084 6.78529 0.0605043 6.59118C0.131093 6.39706 0.254622 6.22482 0.431092 6.07447C0.607563 5.92482 0.819328 5.85 1.06639 5.85H5.80462L7.33992 0.767647C7.42815 0.520588 7.56509 0.330706 7.75074 0.198C7.93568 0.0660003 8.13403 0 8.3458 0C8.55756 0 8.75592 0.0660003 8.94086 0.198C9.1265 0.330706 9.26345 0.520588 9.35168 0.767647L10.887 5.85H15.6252C15.8723 5.85 16.084 5.92482 16.2605 6.07447C16.437 6.22482 16.5605 6.39706 16.6311 6.59118C16.7017 6.78529 16.7105 6.99706 16.6576 7.22647C16.6046 7.45588 16.4723 7.64118 16.2605 7.78235L12.4223 10.5088L13.9311 15.4059C14.0193 15.6529 14.0151 15.8824 13.9184 16.0941C13.821 16.3059 13.684 16.4735 13.5076 16.5971C13.3311 16.7206 13.1282 16.7866 12.8987 16.7951C12.6693 16.8042 12.4576 16.7294 12.2634 16.5706L8.3458 13.5794Z" fill="#FFB800"/>
</svg>
