<svg width="20" height="22" viewBox="0 0 20 22" fill="none" xmlns="http://www.w3.org/2000/svg">
<path fill-rule="evenodd" clip-rule="evenodd" d="M18.6665 8.90332H0.842529C0.428529 8.90332 0.0925293 8.56732 0.0925293 8.15332C0.0925293 7.73932 0.428529 7.40332 0.842529 7.40332H18.6665C19.0805 7.40332 19.4165 7.73932 19.4165 8.15332C19.4165 8.56732 19.0805 8.90332 18.6665 8.90332Z" fill="#3D5BFF"/>
<path fill-rule="evenodd" clip-rule="evenodd" d="M14.2013 12.8086C13.7873 12.8086 13.4473 12.4726 13.4473 12.0586C13.4473 11.6446 13.7783 11.3086 14.1923 11.3086H14.2013C14.6153 11.3086 14.9513 11.6446 14.9513 12.0586C14.9513 12.4726 14.6153 12.8086 14.2013 12.8086Z" fill="#3D5BFF"/>
<path fill-rule="evenodd" clip-rule="evenodd" d="M9.76377 12.8086C9.34977 12.8086 9.00977 12.4726 9.00977 12.0586C9.00977 11.6446 9.34077 11.3086 9.75477 11.3086H9.76377C10.1778 11.3086 10.5138 11.6446 10.5138 12.0586C10.5138 12.4726 10.1778 12.8086 9.76377 12.8086Z" fill="#3D5BFF"/>
<path fill-rule="evenodd" clip-rule="evenodd" d="M5.31701 12.8086C4.90301 12.8086 4.56201 12.4726 4.56201 12.0586C4.56201 11.6446 4.89401 11.3086 5.30801 11.3086H5.31701C5.73101 11.3086 6.06701 11.6446 6.06701 12.0586C6.06701 12.4726 5.73101 12.8086 5.31701 12.8086Z" fill="#3D5BFF"/>
<path fill-rule="evenodd" clip-rule="evenodd" d="M14.2013 16.6953C13.7873 16.6953 13.4473 16.3593 13.4473 15.9453C13.4473 15.5313 13.7783 15.1953 14.1923 15.1953H14.2013C14.6153 15.1953 14.9513 15.5313 14.9513 15.9453C14.9513 16.3593 14.6153 16.6953 14.2013 16.6953Z" fill="#3D5BFF"/>
<path fill-rule="evenodd" clip-rule="evenodd" d="M9.76377 16.6953C9.34977 16.6953 9.00977 16.3593 9.00977 15.9453C9.00977 15.5313 9.34077 15.1953 9.75477 15.1953H9.76377C10.1778 15.1953 10.5138 15.5313 10.5138 15.9453C10.5138 16.3593 10.1778 16.6953 9.76377 16.6953Z" fill="#3D5BFF"/>
<path fill-rule="evenodd" clip-rule="evenodd" d="M5.31701 16.6953C4.90301 16.6953 4.56201 16.3593 4.56201 15.9453C4.56201 15.5313 4.89401 15.1953 5.30801 15.1953H5.31701C5.73101 15.1953 6.06701 15.5313 6.06701 15.9453C6.06701 16.3593 5.73101 16.6953 5.31701 16.6953Z" fill="#3D5BFF"/>
<path fill-rule="evenodd" clip-rule="evenodd" d="M13.7936 4.79002C13.3796 4.79002 13.0436 4.45402 13.0436 4.04002V0.749023C13.0436 0.335023 13.3796 -0.000976562 13.7936 -0.000976562C14.2076 -0.000976562 14.5436 0.335023 14.5436 0.749023V4.04002C14.5436 4.45402 14.2076 4.79002 13.7936 4.79002Z" fill="#3D5BFF"/>
<path fill-rule="evenodd" clip-rule="evenodd" d="M5.71533 4.79002C5.30133 4.79002 4.96533 4.45402 4.96533 4.04002V0.749023C4.96533 0.335023 5.30133 -0.000976562 5.71533 -0.000976562C6.12933 -0.000976562 6.46533 0.335023 6.46533 0.749023V4.04002C6.46533 4.45402 6.12933 4.79002 5.71533 4.79002Z" fill="#3D5BFF"/>
<mask id="mask0_480_3333" style="mask-type:luminance" maskUnits="userSpaceOnUse" x="0" y="1" width="20" height="21">
<path fill-rule="evenodd" clip-rule="evenodd" d="M0.00012207 1.57715H19.5001V21.498H0.00012207V1.57715Z" fill="white"/>
</mask>
<g mask="url(#mask0_480_3333)">
<path fill-rule="evenodd" clip-rule="evenodd" d="M5.52113 3.07725C2.92813 3.07725 1.50013 4.46025 1.50013 6.97125V16.0202C1.50013 18.5862 2.92813 19.9982 5.52113 19.9982H13.9791C16.5721 19.9982 18.0001 18.6122 18.0001 16.0962V6.97125C18.0041 5.73625 17.6721 4.77625 17.0131 4.11625C16.3351 3.43625 15.2901 3.07725 13.9881 3.07725H5.52113ZM13.9791 21.4981H5.52112C2.11612 21.4981 0.00012207 19.3991 0.00012207 16.0201V6.97115C0.00012207 3.64315 2.11612 1.57715 5.52112 1.57715H13.9881C15.6971 1.57715 17.1101 2.08915 18.0751 3.05615C19.0121 3.99715 19.5051 5.35015 19.5001 6.97315V16.0961C19.5001 19.4281 17.3841 21.4981 13.9791 21.4981Z" fill="#3D5BFF"/>
</g>
</svg>
